<?xml version="1.0" encoding="utf-8"?>
<!-- Generator: Adobe Illustrator 23.0.1, SVG Export Plug-In . SVG Version: 6.00 Build 0)  -->
<svg version="1.1" id="Layer_1" xmlns="http://www.w3.org/2000/svg" xmlns:xlink="http://www.w3.org/1999/xlink" x="0px" y="0px"
	 viewBox="0 0 960 960" style="enable-background:new 0 0 960 960;" xml:space="preserve">
<style type="text/css">
	.st0{fill:#F2F2F3;}
</style>
<g>
	<g>
		<path class="st0" d="M440.36,520.88v-81.76h72.99v14.28h-58.82v53.19h58.93v14.28H440.36z M464.99,485.34v-12.03h45.32v12.03
			H464.99z"/>
		<path class="st0" d="M525.72,520.88v-81.76h47.34c5.77,0,11.09,0.98,15.97,2.92c4.87,1.95,9.07,4.69,12.6,8.21
			c3.52,3.53,6.28,7.74,8.27,12.65c1.98,4.91,2.98,10.33,2.98,16.25c0,5.92-0.99,11.43-2.98,16.53c-1.99,5.1-4.74,9.5-8.27,13.21
			c-3.52,3.71-7.72,6.64-12.6,8.77c-4.87,2.14-10.2,3.2-15.97,3.2H525.72z M573.06,506.6c3.67,0,7.07-0.68,10.18-2.03
			c3.11-1.35,5.81-3.2,8.1-5.57c2.29-2.36,4.07-5.19,5.34-8.49c1.27-3.3,1.91-6.86,1.91-10.68c0-3.82-0.64-7.37-1.91-10.63
			c-1.28-3.26-3.06-6.05-5.34-8.38c-2.29-2.32-4.99-4.14-8.1-5.45c-3.11-1.31-6.5-1.97-10.18-1.97h-33.18v53.19H573.06z"/>
		<path class="st0" d="M622.66,520.88V506.6h52.52c4.5,0,8.17-0.9,11.02-2.7c2.85-1.8,4.27-4.5,4.27-8.1c0-3.37-1.05-5.96-3.15-7.76
			s-5.17-2.7-9.22-2.7H642v-12.03h35.09c4.05,0,7.05-0.75,9-2.25c1.95-1.5,2.92-4.05,2.92-7.65c0-3.82-1.27-6.47-3.82-7.93
			c-2.55-1.46-6.19-2.19-10.91-2.19h-51.28v-14.17h54.09c3.97,0,7.57,0.45,10.8,1.35c3.22,0.9,6,2.23,8.32,3.99
			c2.32,1.76,4.11,3.97,5.34,6.63c1.24,2.66,1.86,5.72,1.86,9.17c0,5.17-1.11,9.13-3.32,11.86c-2.21,2.74-4.86,4.59-7.93,5.57
			c3.75,1.2,6.82,3.37,9.22,6.53c2.4,3.15,3.6,7.12,3.6,11.92c0,3.75-0.62,7.14-1.86,10.18c-1.24,3.03-3,5.62-5.29,7.76
			c-2.29,2.14-5.06,3.81-8.32,5c-3.26,1.2-6.88,1.8-10.85,1.8H622.66z"/>
		<path class="st0" d="M730.84,461.05v59.83h-13.61v-74.22c0-2.62,0.65-4.7,1.97-6.24c1.31-1.53,3.09-2.31,5.34-2.31
			c1.05,0,2.06,0.23,3.04,0.68c0.97,0.45,1.98,1.2,3.03,2.25l57.69,57.24v-59.83h13.61v74.9c0,2.7-0.65,4.8-1.97,6.3
			c-1.31,1.5-3.02,2.25-5.12,2.25c-2.32,0-4.5-1.01-6.52-3.04L730.84,461.05z"/>
	</g>
	<g>
		<path class="st0" d="M292.9,522.76v19.66l-7.07,7.07l-2.79,2.79l-0.75,0.75l-0.84,0.84c-2.74,2.74-4.72,6.1-5.81,9.75
			c-0.63,2.12-0.96,4.34-0.96,6.6v16.13c1.39,0.05,2.78,0.11,4.18,0.11c1.4,0,2.79-0.05,4.18-0.11v-12.67
			c0-6.13,2.44-12.01,6.77-16.35l9-9h19.66c12.41,0,22.46-10.06,22.46-22.46V500.3h-25.59C302.98,500.3,292.9,510.38,292.9,522.76z
			 M332.58,525.89c0,7.77-6.33,14.09-14.1,14.09h-17.22v-17.22c0-7.77,6.32-14.1,14.09-14.1h17.22V525.89z"/>
		<path class="st0" d="M283.05,548.34v-43.99c0-0.77-0.06-1.54-0.18-2.29c-0.48-3.02-1.9-5.84-4.09-8.04l-4.09-4.09l-2.79-2.79
			l-8.94-8.94v-19.66c0-12.41-10.06-22.46-22.46-22.46h-25.57v25.59c0,12.4,10.05,22.46,22.46,22.46h19.67l13.36,13.36
			c2.74,2.74,4.27,6.45,4.27,10.32v44.66l-11.73-11.73v-19.67c0-12.39-10.07-22.46-22.46-22.46h-25.58v25.59
			c0,12.4,10.05,22.46,22.46,22.46h19.66l15.81,15.81l0.32-0.32c1.25-3.82,3.38-7.32,6.3-10.25L283.05,548.34z M254.59,475.77
			h-17.22c-7.77,0-14.09-6.32-14.09-14.09v-17.22h17.22c7.77,0,14.09,6.33,14.09,14.1V475.77z M254.59,538.31h-17.22
			c-7.77,0-14.09-6.32-14.09-14.09v-17.22h17.22c7.77,0,14.09,6.33,14.09,14.1V538.31z"/>
		<path class="st0" d="M278.86,359.22c-66.58,0-120.78,54.19-120.78,120.78c0,65.19,51.94,118.45,116.59,120.67
			c1.39,0.05,2.79,0.11,4.18,0.11c1.41,0,2.79-0.05,4.19-0.11c64.65-2.22,116.59-55.48,116.59-120.67
			C399.64,413.42,345.47,359.22,278.86,359.22z M283.05,591.73c-1.4,0.05-2.77,0.11-4.19,0.11c-1.39,0-2.79-0.05-4.18-0.11
			c-59.72-2.22-107.65-51.47-107.65-111.73c0-61.67,50.17-111.83,111.83-111.83c61.67,0,111.83,50.17,111.83,111.83
			C390.7,540.25,342.78,589.51,283.05,591.73z"/>
		<path class="st0" d="M315.37,437.77c-12.39,0-22.46,10.07-22.46,22.46v19.66l-2.79,2.79l-7.06,7.06v-46.07l13.91-13.9
			c8.75-8.76,8.75-23.02,0-31.76l-18.1-18.1l-18.08,18.1c-8.76,8.75-8.76,23,0,31.76l13.9,13.9v42.33l6.06,6.05
			c2.09,2.11,3.59,4.65,4.4,7.42l10.89-10.87l2.79-2.79h19.66c12.39,0,22.46-10.07,22.46-22.46v-25.58H315.37z M278.86,436.04
			l-4.18-4.19l-7.98-7.99c-5.51-5.49-5.51-14.43,0-19.94l12.16-12.16l12.18,12.16c5.49,5.51,5.49,14.45,0,19.94L278.86,436.04z
			 M332.59,463.35c0,7.78-6.33,14.09-14.11,14.09h-17.21v-17.21c0-7.78,6.31-14.11,14.09-14.11h17.22V463.35z"/>
	</g>
</g>
</svg>
