<?xml version="1.0" encoding="UTF-8" standalone="no"?>
<!-- Created with Inkscape (http://www.inkscape.org/) -->

<svg
   width="209.13287mm"
   height="80.289146mm"
   viewBox="0 0 209.13287 80.289146"
   version="1.1"
   id="svg1"
   inkscape:version="1.4.2 (ebf0e940, 2025-05-08)"
   sodipodi:docname="drawing.svg"
   xmlns:inkscape="http://www.inkscape.org/namespaces/inkscape"
   xmlns:sodipodi="http://sodipodi.sourceforge.net/DTD/sodipodi-0.dtd"
   xmlns="http://www.w3.org/2000/svg"
   xmlns:svg="http://www.w3.org/2000/svg">
  <sodipodi:namedview
     id="namedview1"
     pagecolor="#ffffff"
     bordercolor="#000000"
     borderopacity="0.25"
     inkscape:showpageshadow="2"
     inkscape:pageopacity="0.0"
     inkscape:pagecheckerboard="0"
     inkscape:deskcolor="#d1d1d1"
     inkscape:document-units="mm"
     inkscape:zoom="1.5348565"
     inkscape:cx="361.92308"
     inkscape:cy="117.2748"
     inkscape:window-width="2056"
     inkscape:window-height="1257"
     inkscape:window-x="0"
     inkscape:window-y="44"
     inkscape:window-maximized="1"
     inkscape:current-layer="layer1" />
  <defs
     id="defs1" />
  <g
     inkscape:label="Layer 1"
     inkscape:groupmode="layer"
     id="layer1"
     transform="translate(-0.01161202,-107.28036)">
    <g
       id="g9"
       transform="matrix(0.32482624,0,0,0.33237764,-51.33692,-12.116337)">
	<g
   id="g4">
		<path
   class="st0"
   d="m 440.36,520.88 v -81.76 h 72.99 v 14.28 h -58.82 v 53.19 h 58.93 v 14.28 h -73.1 z m 24.63,-35.54 v -12.03 h 45.32 v 12.03 z"
   id="path1"
   style="fill:#f2f2f3" />

		<path
   class="st0"
   d="m 525.72,520.88 v -81.76 h 47.34 c 5.77,0 11.09,0.98 15.97,2.92 4.87,1.95 9.07,4.69 12.6,8.21 3.52,3.53 6.28,7.74 8.27,12.65 1.98,4.91 2.98,10.33 2.98,16.25 0,5.92 -0.99,11.43 -2.98,16.53 -1.99,5.1 -4.74,9.5 -8.27,13.21 -3.52,3.71 -7.72,6.64 -12.6,8.77 -4.87,2.14 -10.2,3.2 -15.97,3.2 h -47.34 z m 47.34,-14.28 c 3.67,0 7.07,-0.68 10.18,-2.03 3.11,-1.35 5.81,-3.2 8.1,-5.57 2.29,-2.36 4.07,-5.19 5.34,-8.49 1.27,-3.3 1.91,-6.86 1.91,-10.68 0,-3.82 -0.64,-7.37 -1.91,-10.63 -1.28,-3.26 -3.06,-6.05 -5.34,-8.38 -2.29,-2.32 -4.99,-4.14 -8.1,-5.45 -3.11,-1.31 -6.5,-1.97 -10.18,-1.97 h -33.18 v 53.19 h 33.18 z"
   id="path2"
   style="fill:#f2f2f3" />

		<path
   class="st0"
   d="M 622.66,520.88 V 506.6 h 52.52 c 4.5,0 8.17,-0.9 11.02,-2.7 2.85,-1.8 4.27,-4.5 4.27,-8.1 0,-3.37 -1.05,-5.96 -3.15,-7.76 -2.1,-1.8 -5.17,-2.7 -9.22,-2.7 H 642 v -12.03 h 35.09 c 4.05,0 7.05,-0.75 9,-2.25 1.95,-1.5 2.92,-4.05 2.92,-7.65 0,-3.82 -1.27,-6.47 -3.82,-7.93 -2.55,-1.46 -6.19,-2.19 -10.91,-2.19 H 623 v -14.17 h 54.09 c 3.97,0 7.57,0.45 10.8,1.35 3.22,0.9 6,2.23 8.32,3.99 2.32,1.76 4.11,3.97 5.34,6.63 1.24,2.66 1.86,5.72 1.86,9.17 0,5.17 -1.11,9.13 -3.32,11.86 -2.21,2.74 -4.86,4.59 -7.93,5.57 3.75,1.2 6.82,3.37 9.22,6.53 2.4,3.15 3.6,7.12 3.6,11.92 0,3.75 -0.62,7.14 -1.86,10.18 -1.24,3.03 -3,5.62 -5.29,7.76 -2.29,2.14 -5.06,3.81 -8.32,5 -3.26,1.2 -6.88,1.8 -10.85,1.8 z"
   id="path3"
   style="fill:#f2f2f3" />

		<path
   class="st0"
   d="m 730.84,461.05 v 59.83 h -13.61 v -74.22 c 0,-2.62 0.65,-4.7 1.97,-6.24 1.31,-1.53 3.09,-2.31 5.34,-2.31 1.05,0 2.06,0.23 3.04,0.68 0.97,0.45 1.98,1.2 3.03,2.25 l 57.69,57.24 v -59.83 h 13.61 v 74.9 c 0,2.7 -0.65,4.8 -1.97,6.3 -1.31,1.5 -3.02,2.25 -5.12,2.25 -2.32,0 -4.5,-1.01 -6.52,-3.04 z"
   id="path4"
   style="fill:#f2f2f3" />

	</g>

	<g
   id="g8">
		<path
   class="st0"
   d="m 292.9,522.76 v 19.66 l -7.07,7.07 -2.79,2.79 -0.75,0.75 -0.84,0.84 c -2.74,2.74 -4.72,6.1 -5.81,9.75 -0.63,2.12 -0.96,4.34 -0.96,6.6 v 16.13 c 1.39,0.05 2.78,0.11 4.18,0.11 1.4,0 2.79,-0.05 4.18,-0.11 v -12.67 c 0,-6.13 2.44,-12.01 6.77,-16.35 l 9,-9 h 19.66 c 12.41,0 22.46,-10.06 22.46,-22.46 V 500.3 h -25.59 c -12.36,0 -22.44,10.08 -22.44,22.46 z m 39.68,3.13 c 0,7.77 -6.33,14.09 -14.1,14.09 h -17.22 v -17.22 c 0,-7.77 6.32,-14.1 14.09,-14.1 h 17.22 v 17.23 z"
   id="path5"
   style="fill:#f2f2f3" />

		<path
   class="st0"
   d="m 283.05,548.34 v -43.99 c 0,-0.77 -0.06,-1.54 -0.18,-2.29 -0.48,-3.02 -1.9,-5.84 -4.09,-8.04 l -4.09,-4.09 -2.79,-2.79 -8.94,-8.94 v -19.66 c 0,-12.41 -10.06,-22.46 -22.46,-22.46 h -25.57 v 25.59 c 0,12.4 10.05,22.46 22.46,22.46 h 19.67 l 13.36,13.36 c 2.74,2.74 4.27,6.45 4.27,10.32 v 44.66 l -11.73,-11.73 v -19.67 c 0,-12.39 -10.07,-22.46 -22.46,-22.46 h -25.58 v 25.59 c 0,12.4 10.05,22.46 22.46,22.46 h 19.66 l 15.81,15.81 0.32,-0.32 c 1.25,-3.82 3.38,-7.32 6.3,-10.25 z m -28.46,-72.57 h -17.22 c -7.77,0 -14.09,-6.32 -14.09,-14.09 v -17.22 h 17.22 c 7.77,0 14.09,6.33 14.09,14.1 z m 0,62.54 h -17.22 c -7.77,0 -14.09,-6.32 -14.09,-14.09 V 507 h 17.22 c 7.77,0 14.09,6.33 14.09,14.1 z"
   id="path6"
   style="fill:#f2f2f3" />

		<path
   class="st0"
   d="m 278.86,359.22 c -66.58,0 -120.78,54.19 -120.78,120.78 0,65.19 51.94,118.45 116.59,120.67 1.39,0.05 2.79,0.11 4.18,0.11 1.41,0 2.79,-0.05 4.19,-0.11 C 347.69,598.45 399.63,545.19 399.63,480 399.64,413.42 345.47,359.22 278.86,359.22 Z m 4.19,232.51 c -1.4,0.05 -2.77,0.11 -4.19,0.11 -1.39,0 -2.79,-0.05 -4.18,-0.11 C 214.96,589.51 167.03,540.26 167.03,480 c 0,-61.67 50.17,-111.83 111.83,-111.83 61.67,0 111.83,50.17 111.83,111.83 0.01,60.25 -47.91,109.51 -107.64,111.73 z"
   id="path7"
   style="fill:#f2f2f3" />

		<path
   class="st0"
   d="m 315.37,437.77 c -12.39,0 -22.46,10.07 -22.46,22.46 v 19.66 l -2.79,2.79 -7.06,7.06 v -46.07 l 13.91,-13.9 c 8.75,-8.76 8.75,-23.02 0,-31.76 l -18.1,-18.1 -18.08,18.1 c -8.76,8.75 -8.76,23 0,31.76 l 13.9,13.9 V 486 l 6.06,6.05 c 2.09,2.11 3.59,4.65 4.4,7.42 l 10.89,-10.87 2.79,-2.79 h 19.66 c 12.39,0 22.46,-10.07 22.46,-22.46 v -25.58 z m -36.51,-1.73 -4.18,-4.19 -7.98,-7.99 c -5.51,-5.49 -5.51,-14.43 0,-19.94 l 12.16,-12.16 12.18,12.16 c 5.49,5.51 5.49,14.45 0,19.94 z m 53.73,27.31 c 0,7.78 -6.33,14.09 -14.11,14.09 h -17.21 v -17.21 c 0,-7.78 6.31,-14.11 14.09,-14.11 h 17.22 v 17.23 z"
   id="path8"
   style="fill:#f2f2f3" />

	</g>

</g>
  </g>
</svg>
