<?xml version="1.0" encoding="UTF-8" standalone="no"?>
<!-- Created with Inkscape (http://www.inkscape.org/) -->

<svg
   width="63.910103mm"
   height="63.91275mm"
   viewBox="0 0 63.910103 63.91275"
   version="1.1"
   id="svg1"
   xml:space="preserve"
   inkscape:version="1.4.2 (ebf0e940, 2025-05-08)"
   sodipodi:docname="drawing.svg"
   xmlns:inkscape="http://www.inkscape.org/namespaces/inkscape"
   xmlns:sodipodi="http://sodipodi.sourceforge.net/DTD/sodipodi-0.dtd"
   xmlns="http://www.w3.org/2000/svg"
   xmlns:svg="http://www.w3.org/2000/svg"><sodipodi:namedview
     id="namedview1"
     pagecolor="#ffffff"
     bordercolor="#000000"
     borderopacity="0.25"
     inkscape:showpageshadow="2"
     inkscape:pageopacity="0.0"
     inkscape:pagecheckerboard="0"
     inkscape:deskcolor="#d1d1d1"
     inkscape:document-units="mm"
     inkscape:zoom="0.10078296"
     inkscape:cx="5799.5913"
     inkscape:cy="218.29086"
     inkscape:window-width="2056"
     inkscape:window-height="1257"
     inkscape:window-x="0"
     inkscape:window-y="44"
     inkscape:window-maximized="1"
     inkscape:current-layer="layer1" /><defs
     id="defs1" /><g
     inkscape:label="Layer 1"
     inkscape:groupmode="layer"
     id="layer1"
     transform="translate(-71.843835,-127.30964)"><g
       id="g4"
       transform="matrix(0.26458333,0,0,0.26458333,-23.199789,32.266012)">
	<path
   d="m 494.04,522.76 v 19.66 l -7.07,7.07 -2.79,2.79 -0.75,0.75 -0.84,0.84 c -2.74,2.74 -4.72,6.1 -5.81,9.75 -0.63,2.12 -0.96,4.34 -0.96,6.6 v 16.13 c 1.39,0.05 2.78,0.11 4.18,0.11 1.4,0 2.79,-0.05 4.18,-0.11 v -12.67 c 0,-6.13 2.44,-12.01 6.77,-16.35 l 9,-9 h 19.66 c 12.41,0 22.46,-10.06 22.46,-22.46 V 500.3 H 516.5 c -12.38,0 -22.46,10.08 -22.46,22.46 z m 39.68,3.13 c 0,7.77 -6.33,14.09 -14.1,14.09 H 502.4 v -17.22 c 0,-7.77 6.32,-14.1 14.1,-14.1 h 17.22 z"
   id="path1" />
	<path
   d="m 484.18,548.34 v -43.99 c 0,-0.77 -0.06,-1.54 -0.18,-2.29 -0.48,-3.02 -1.9,-5.84 -4.09,-8.04 l -4.09,-4.09 -2.79,-2.79 -8.94,-8.94 v -19.66 c 0,-12.41 -10.06,-22.46 -22.46,-22.46 h -25.57 v 25.59 c 0,12.4 10.05,22.46 22.46,22.46 h 19.67 l 13.36,13.36 c 2.74,2.74 4.27,6.45 4.27,10.32 v 44.66 l -11.73,-11.73 v -19.67 c 0,-12.39 -10.07,-22.46 -22.46,-22.46 h -25.58 v 25.59 c 0,12.4 10.05,22.46 22.46,22.46 h 19.66 l 15.81,15.81 0.32,-0.32 c 1.25,-3.82 3.38,-7.32 6.3,-10.25 z m -28.45,-72.57 h -17.22 c -7.77,0 -14.09,-6.32 -14.09,-14.09 v -17.22 h 17.22 c 7.77,0 14.09,6.33 14.09,14.1 z m 0,62.54 h -17.22 c -7.77,0 -14.09,-6.32 -14.09,-14.09 V 507 h 17.22 c 7.77,0 14.09,6.33 14.09,14.1 z"
   id="path2" />
	<path
   d="m 480,359.22 c -66.58,0 -120.78,54.19 -120.78,120.78 0,65.19 51.94,118.45 116.59,120.67 1.39,0.05 2.79,0.11 4.18,0.11 1.41,0 2.79,-0.05 4.19,-0.11 C 548.83,598.45 600.77,545.19 600.77,480 600.78,413.42 546.6,359.22 480,359.22 Z m 4.18,232.51 c -1.4,0.05 -2.77,0.11 -4.19,0.11 -1.39,0 -2.79,-0.05 -4.18,-0.11 C 416.1,589.51 368.17,540.25 368.17,480 c 0,-61.67 50.17,-111.83 111.83,-111.83 61.67,0 111.83,50.17 111.83,111.83 0,60.25 -47.91,109.51 -107.65,111.73 z"
   id="path3" />
	<path
   d="m 516.5,437.77 c -12.39,0 -22.46,10.07 -22.46,22.46 v 19.66 l -2.79,2.79 -7.06,7.06 v -46.07 l 13.91,-13.9 c 8.75,-8.76 8.75,-23.02 0,-31.76 l -18.1,-18.1 -18.08,18.1 c -8.76,8.75 -8.76,23 0,31.76 l 13.9,13.9 V 486 l 6.06,6.05 c 2.09,2.11 3.59,4.65 4.4,7.42 l 10.89,-10.87 2.79,-2.79 h 19.66 c 12.39,0 22.46,-10.07 22.46,-22.46 v -25.58 z m -36.5,-1.73 -4.18,-4.19 -7.98,-7.99 c -5.51,-5.49 -5.51,-14.43 0,-19.94 l 12.16,-12.16 12.18,12.16 c 5.49,5.51 5.49,14.45 0,19.94 z m 53.73,27.31 c 0,7.78 -6.33,14.09 -14.11,14.09 h -17.21 v -17.21 c 0,-7.78 6.31,-14.11 14.09,-14.11 h 17.22 v 17.23 z"
   id="path4" />
</g></g></svg>
